<svg id="Layer_1" data-name="Layer 1" xmlns="http://www.w3.org/2000/svg" viewBox="0 0 95.74 30.72"><defs><style>.cls-1{fill:#142237;}.cls-2{fill:#fff;}.cls-3{fill:#c7c6c5;}</style></defs><path class="cls-1" d="M34.35,20v.37H33.27V23.5h-.52V20.35h-1.1V20Z"/><path class="cls-1" d="M37.84,22.29H35.33a.85.85,0,0,0,.32.63,1.06,1.06,0,0,0,.7.23,1,1,0,0,0,.56-.14.68.68,0,0,0,.32-.37h.56a1.18,1.18,0,0,1-.5.65,1.65,1.65,0,0,1-.94.25,1.74,1.74,0,0,1-.8-.18,1.27,1.27,0,0,1-.55-.5,1.42,1.42,0,0,1-.2-.75,1.39,1.39,0,0,1,.19-.75,1.33,1.33,0,0,1,.55-.5,1.92,1.92,0,0,1,.81-.17,1.67,1.67,0,0,1,.79.17,1.22,1.22,0,0,1,.53.47,1.31,1.31,0,0,1,.19.68C37.86,22.1,37.85,22.19,37.84,22.29Zm-.65-.83a.94.94,0,0,0-.36-.29,1.35,1.35,0,0,0-.5-.09,1,1,0,0,0-.67.22.82.82,0,0,0-.32.61h2A.85.85,0,0,0,37.19,21.46Z"/><path class="cls-1" d="M38.54,21.36a1.37,1.37,0,0,1,.54-.5,1.7,1.7,0,0,1,.76-.17,1.58,1.58,0,0,1,.71.15,1.18,1.18,0,0,1,.45.4v-.51h.53V23.5H41V23a1.07,1.07,0,0,1-.46.4,1.46,1.46,0,0,1-.71.16,1.54,1.54,0,0,1-.75-.18,1.33,1.33,0,0,1-.54-.51,1.44,1.44,0,0,1-.19-.75A1.38,1.38,0,0,1,38.54,21.36Zm2.32.2a.89.89,0,0,0-.39-.35,1.18,1.18,0,0,0-.53-.12,1.15,1.15,0,0,0-.53.12.94.94,0,0,0-.39.35,1.06,1.06,0,0,0-.14.54,1.11,1.11,0,0,0,.14.56,1,1,0,0,0,.39.35,1,1,0,0,0,.53.13,1.07,1.07,0,0,0,.53-.13.89.89,0,0,0,.39-.35,1.15,1.15,0,0,0,0-1.1Z"/><path class="cls-1" d="M42.41,21.36a1.37,1.37,0,0,1,.54-.5,1.85,1.85,0,0,1,.8-.17,1.74,1.74,0,0,1,1,.24,1.19,1.19,0,0,1,.49.69h-.56a.68.68,0,0,0-.31-.4,1,1,0,0,0-.57-.14.94.94,0,0,0-1,1,1,1,0,0,0,.27.77,1,1,0,0,0,.73.27,1,1,0,0,0,.57-.14.69.69,0,0,0,.31-.4h.56a1.21,1.21,0,0,1-.5.68,1.65,1.65,0,0,1-.94.25,1.71,1.71,0,0,1-.8-.18,1.28,1.28,0,0,1-.54-.49,1.45,1.45,0,0,1-.19-.76A1.39,1.39,0,0,1,42.41,21.36Z"/><path class="cls-1" d="M48.08,20.82a1,1,0,0,1,.45.4,1.18,1.18,0,0,1,.17.65V23.5h-.52V21.93A.85.85,0,0,0,48,21.3a.89.89,0,0,0-.64-.22.93.93,0,0,0-.66.23.86.86,0,0,0-.24.66V23.5h-.52V19.76h.52v1.37a.93.93,0,0,1,.42-.33,1.51,1.51,0,0,1,.61-.12A1.47,1.47,0,0,1,48.08,20.82Z"/><path class="cls-1" d="M49.57,20.19a.27.27,0,0,1,0-.44.37.37,0,0,1,.25-.09.36.36,0,0,1,.24.09.29.29,0,0,1,0,.44.36.36,0,0,1-.24.09A.37.37,0,0,1,49.57,20.19Zm.5.54V23.5h-.52V20.73Z"/><path class="cls-1" d="M53.41,21a1.08,1.08,0,0,1,.36.88V23.5h-.52V21.93A.85.85,0,0,0,53,21.3a.89.89,0,0,0-.64-.22.93.93,0,0,0-.66.23.86.86,0,0,0-.24.66V23.5H51V20.73h.52v.4a.93.93,0,0,1,.42-.33,1.41,1.41,0,0,1,.59-.12A1.31,1.31,0,0,1,53.41,21Z"/><path class="cls-1" d="M56.63,20.84a1.18,1.18,0,0,1,.45.4v-.51h.53v2.83a1.19,1.19,0,0,1-.19.67,1.17,1.17,0,0,1-.52.46,1.8,1.8,0,0,1-.79.17,1.92,1.92,0,0,1-1-.26,1,1,0,0,1-.49-.7h.52a.68.68,0,0,0,.35.4,1.23,1.23,0,0,0,.65.16,1,1,0,0,0,.7-.24.84.84,0,0,0,.27-.66V23a1.14,1.14,0,0,1-.46.4,1.46,1.46,0,0,1-.71.16,1.57,1.57,0,0,1-.75-.18,1.33,1.33,0,0,1-.54-.51,1.44,1.44,0,0,1-.19-.75,1.33,1.33,0,0,1,.73-1.24,1.69,1.69,0,0,1,.75-.17A1.66,1.66,0,0,1,56.63,20.84Zm.31.72a1,1,0,0,0-.39-.35,1.18,1.18,0,0,0-.53-.12,1.19,1.19,0,0,0-.54.12.91.91,0,0,0-.38.35,1.06,1.06,0,0,0-.14.54,1.11,1.11,0,0,0,.14.56,1,1,0,0,0,.38.35,1.08,1.08,0,0,0,.54.13,1.07,1.07,0,0,0,.53-.13,1,1,0,0,0,.39-.35,1.15,1.15,0,0,0,0-1.1Z"/><path class="cls-1" d="M65,20,63.88,23.5h-.59l-.93-2.83-1,2.83h-.58L59.71,20h.55l.87,3,1-3h.58l.91,3,.88-3Z"/><path class="cls-1" d="M65.62,20.19a.29.29,0,0,1,0-.44.39.39,0,0,1,.5,0,.29.29,0,0,1,0,.44.39.39,0,0,1-.5,0Zm.5.54V23.5H65.6V20.73Z"/><path class="cls-1" d="M67.65,21.11v1.63a.36.36,0,0,0,.09.28.51.51,0,0,0,.34.09h.39v.39H68a1,1,0,0,1-.66-.18.72.72,0,0,1-.21-.58V21.11h-.41v-.38h.41V20h.52v.69h.82v.38Z"/><path class="cls-1" d="M71.29,20.82a1,1,0,0,1,.45.4,1.18,1.18,0,0,1,.17.65V23.5h-.52V21.93a.85.85,0,0,0-.23-.63.9.9,0,0,0-.65-.22.92.92,0,0,0-.65.23.86.86,0,0,0-.24.66V23.5H69.1V19.76h.52v1.37A.93.93,0,0,1,70,20.8a1.51,1.51,0,0,1,.61-.12A1.47,1.47,0,0,1,71.29,20.82Z"/><path class="cls-1" d="M76.61,21.74a1.57,1.57,0,0,1-1,.29h-.76V23.5h-.52V20h1.28a1.6,1.6,0,0,1,1,.29A.9.9,0,0,1,77,21,.91.91,0,0,1,76.61,21.74Zm-.39-.26a.59.59,0,0,0,.2-.47c0-.43-.28-.65-.85-.65h-.76v1.29h.76A1.05,1.05,0,0,0,76.22,21.48Z"/><path class="cls-1" d="M77.6,21.36a1.37,1.37,0,0,1,.54-.5,1.69,1.69,0,0,1,.75-.17,1.59,1.59,0,0,1,.72.15,1.18,1.18,0,0,1,.45.4v-.51h.53V23.5h-.53V23a1.14,1.14,0,0,1-.46.4,1.46,1.46,0,0,1-.71.16,1.61,1.61,0,0,1-.76-.18,1.37,1.37,0,0,1-.53-.51,1.44,1.44,0,0,1-.19-.75A1.38,1.38,0,0,1,77.6,21.36Zm2.32.2a1,1,0,0,0-.39-.35,1.18,1.18,0,0,0-.53-.12,1.19,1.19,0,0,0-.54.12.91.91,0,0,0-.38.35,1.06,1.06,0,0,0-.14.54,1.11,1.11,0,0,0,.14.56,1,1,0,0,0,.38.35,1.08,1.08,0,0,0,.54.13,1.07,1.07,0,0,0,.53-.13,1,1,0,0,0,.39-.35,1.15,1.15,0,0,0,0-1.1Z"/><path class="cls-1" d="M81.93,23.43a1,1,0,0,1-.45-.3.75.75,0,0,1-.18-.45h.54a.43.43,0,0,0,.22.34,1.06,1.06,0,0,0,1,0,.35.35,0,0,0,.18-.3.3.3,0,0,0-.19-.27,4,4,0,0,0-.56-.17,4.26,4.26,0,0,1-.57-.16,1,1,0,0,1-.38-.25.57.57,0,0,1-.16-.43.64.64,0,0,1,.14-.39,1,1,0,0,1,.41-.28,1.64,1.64,0,0,1,.6-.1,1.35,1.35,0,0,1,.84.23.8.8,0,0,1,.35.63h-.53a.43.43,0,0,0-.19-.34.79.79,0,0,0-.49-.13.82.82,0,0,0-.44.1.32.32,0,0,0-.17.28.27.27,0,0,0,.1.22.68.68,0,0,0,.25.14,2.85,2.85,0,0,0,.42.12l.55.16a.91.91,0,0,1,.37.24.55.55,0,0,1,.15.4.6.6,0,0,1-.14.41.94.94,0,0,1-.4.29,1.64,1.64,0,0,1-.6.1A1.88,1.88,0,0,1,81.93,23.43Z"/><path class="cls-1" d="M84.92,23.43a1,1,0,0,1-.45-.3.75.75,0,0,1-.18-.45h.53A.48.48,0,0,0,85,23a.93.93,0,0,0,.52.13A.88.88,0,0,0,86,23a.34.34,0,0,0,.17-.3.29.29,0,0,0-.18-.27,3.77,3.77,0,0,0-.57-.17,5.36,5.36,0,0,1-.57-.16,1.05,1.05,0,0,1-.37-.25.57.57,0,0,1-.16-.43.64.64,0,0,1,.14-.39,1,1,0,0,1,.41-.28,1.57,1.57,0,0,1,.6-.1,1.35,1.35,0,0,1,.84.23.79.79,0,0,1,.34.63h-.52a.43.43,0,0,0-.19-.34.83.83,0,0,0-.49-.13.8.8,0,0,0-.44.1.3.3,0,0,0-.17.28.27.27,0,0,0,.1.22.68.68,0,0,0,.25.14,2.85,2.85,0,0,0,.42.12l.55.16a.88.88,0,0,1,.36.24.52.52,0,0,1,.16.4.66.66,0,0,1-.14.41,1,1,0,0,1-.4.29,1.64,1.64,0,0,1-.6.1A1.88,1.88,0,0,1,84.92,23.43Z"/><path class="cls-1" d="M87.46,20.19a.29.29,0,0,1,0-.44.39.39,0,0,1,.5,0,.29.29,0,0,1,0,.44.39.39,0,0,1-.5,0Zm.51.54V23.5h-.53V20.73Z"/><path class="cls-1" d="M89.42,23.36a1.29,1.29,0,0,1-.56-.5,1.42,1.42,0,0,1-.2-.75,1.37,1.37,0,0,1,.21-.75,1.38,1.38,0,0,1,.57-.5,2,2,0,0,1,1.61,0,1.38,1.38,0,0,1,.57.5,1.32,1.32,0,0,1,.21.75,1.27,1.27,0,0,1-.22.75,1.29,1.29,0,0,1-.58.5,1.89,1.89,0,0,1-1.61,0ZM90.75,23a.94.94,0,0,0,.39-.35.93.93,0,0,0,.16-.56,1.05,1.05,0,0,0-.15-.57.91.91,0,0,0-.39-.34,1.16,1.16,0,0,0-.52-.11,1.17,1.17,0,0,0-.53.11,1,1,0,0,0-.38.34,1.23,1.23,0,0,0,0,1.14.84.84,0,0,0,.38.34,1.07,1.07,0,0,0,.51.12A1.21,1.21,0,0,0,90.75,23Z"/><path class="cls-1" d="M95,21a1.08,1.08,0,0,1,.36.88V23.5h-.52V21.93a.85.85,0,0,0-.23-.63.89.89,0,0,0-.64-.22.93.93,0,0,0-.66.23A.86.86,0,0,0,93,22V23.5h-.52V20.73H93v.4a.93.93,0,0,1,.42-.33,1.37,1.37,0,0,1,.58-.12A1.34,1.34,0,0,1,95,21Z"/><circle class="cls-1" cx="15.14" cy="15.36" r="14.73"/><path class="cls-2" d="M5.6,22.82H4.39l-.19.61H3.38L4.55,20h.91l1.17,3.44H5.8Zm-.2-.65L5,20.91l-.4,1.26Z"/><path class="cls-2" d="M7.06,20.79a1.57,1.57,0,0,1,.58-.62,1.7,1.7,0,0,1,1.83.1,1.58,1.58,0,0,1,.54.88H9.15a.73.73,0,0,0-.28-.32.7.7,0,0,0-.4-.12.74.74,0,0,0-.59.27,1.24,1.24,0,0,0,0,1.44.74.74,0,0,0,.59.27.77.77,0,0,0,.4-.11.83.83,0,0,0,.28-.33H10a1.54,1.54,0,0,1-.54.88,1.7,1.7,0,0,1-1.83.1,1.57,1.57,0,0,1-.58-.62,2.08,2.08,0,0,1,0-1.82Z"/><path class="cls-2" d="M12.51,22.82h-1.2l-.2.61h-.82L11.46,20h.91l1.17,3.44h-.83Zm-.2-.65-.4-1.26-.4,1.26Z"/><path class="cls-2" d="M16,20.2a1.53,1.53,0,0,1,.6.61,2,2,0,0,1,0,1.79,1.47,1.47,0,0,1-.6.61,1.83,1.83,0,0,1-.89.22H13.9V20h1.21A1.8,1.8,0,0,1,16,20.2Zm-.25,2.24a1.21,1.21,0,0,0,0-1.47.87.87,0,0,0-.69-.27h-.38v2h.38A.9.9,0,0,0,15.75,22.44Z"/><path class="cls-2" d="M18,20.66v.69h1.05V22H18v.76h1.19v.67h-2V20h2v.67Z"/><path class="cls-2" d="M23.41,20v3.44h-.79V21.36l-.73,2.07h-.63l-.73-2.07v2.07h-.79V20h.93l.91,2.38.9-2.38Z"/><path class="cls-2" d="M26.75,20l-1.12,2.3v1.14h-.79V22.29L23.72,20h.89l.63,1.44L25.86,20Z"/><polygon class="cls-3" points="3.35 18.42 10.22 6.47 14.41 6.47 7.57 18.47 3.35 18.42"/><polygon class="cls-2" points="11.05 12.34 12.58 14.89 10.55 18.49 9.06 15.88 11.05 12.34"/><polygon class="cls-2" points="21.56 6.45 14.76 18.45 10.53 18.45 17.4 6.47 21.56 6.45"/><polygon class="cls-2" points="26.77 18.45 22.59 18.45 20.11 14.21 22.21 10.63 26.77 18.45"/><polygon class="cls-1" points="38.48 14.81 35.1 6.52 31.64 6.52 31.64 18.5 34.57 18.5 34.57 11.3 37.28 18.5 39.65 18.5 42.34 11.31 42.34 18.5 45.27 18.5 45.27 6.52 41.82 6.52 38.48 14.81"/><polygon class="cls-1" points="47.38 18.5 54.75 18.5 54.75 16.16 50.31 16.16 50.31 13.53 54.23 13.53 54.23 11.28 50.31 11.28 50.31 8.86 54.75 8.86 54.75 6.52 47.38 6.52 47.38 18.5"/><path class="cls-1" d="M65.31,12.42A3.54,3.54,0,0,0,66,10.29a3.77,3.77,0,0,0-.5-1.92A3.44,3.44,0,0,0,64,7a5.41,5.41,0,0,0-2.42-.49H56.65v12h2.93V14h.7l2.51,4.52h3.3l-2.77-4.75A3.59,3.59,0,0,0,65.31,12.42Zm-2.7-.9a1.69,1.69,0,0,1-1.21.39H59.58v-3H61.4a1.69,1.69,0,0,1,1.21.39,1.48,1.48,0,0,1,.4,1.08A1.51,1.51,0,0,1,62.61,11.52Z"/><path class="cls-1" d="M71.39,6.52,67,18.5H70.1l.72-2.12h4.49L76,18.5h3.11l-4.36-12Zm3.17,7.61h-3l1.48-4.39"/><polygon class="cls-1" points="90.84 6.52 87.4 6.52 83.39 11.78 83.39 6.52 80.46 6.52 80.46 18.5 83.39 18.5 83.39 13.21 87.43 18.5 91.01 18.5 86.18 12.39 90.84 6.52"/><rect class="cls-1" x="92.4" y="6.52" width="2.93" height="11.98"/></svg>